<svg xmlns="http://www.w3.org/2000/svg" width="1520" height="554" viewBox="0 0 1520 554">
  <g id="Group_1" data-name="Group 1" transform="translate(-5367 1478)">
    <text id="Tour_36" data-name="Tour 36" transform="translate(5367 -1032)" fill="#fafafa" font-size="374" font-family="Oswald-SemiBold, Oswald" font-weight="600"><tspan x="0" y="0">Tour 36</tspan></text>
    <path id="Icon_awesome-globe-americas" data-name="Icon awesome-globe-americas" d="M165.424.563A165.424,165.424,0,1,0,330.848,165.986,165.421,165.421,0,0,0,165.424.563Zm54.89,238.531c-2.6,2.588-5.33,5.3-7.544,7.524a15.94,15.94,0,0,0-4.116,7.144c-1.007,3.775-1.821,7.591-3.182,11.253l-11.6,31.25a133.3,133.3,0,0,1-28.449,3.128V281.129c1.127-8.418-5.1-24.187-15.095-34.185a21.346,21.346,0,0,1-6.25-15.095V210.5A21.275,21.275,0,0,0,133.1,191.841c-9.585-5.3-23.219-12.714-32.558-17.416A96.156,96.156,0,0,1,79.43,159.916l-.534-.48A76.571,76.571,0,0,1,66.85,145.6c-6.257-9.185-16.449-24.293-23.073-34.112a134.132,134.132,0,0,1,68.838-67.964l16.015,8.011a10.673,10.673,0,0,0,15.448-9.545V34.454a133.309,133.309,0,0,1,16.269-1.614l18.877,18.877a10.673,10.673,0,0,1,0,15.095L176.1,69.934l-6.9,6.9a5.338,5.338,0,0,0,0,7.544l3.128,3.128a5.338,5.338,0,0,1,0,7.544l-5.336,5.336a5.342,5.342,0,0,1-3.775,1.561h-6a5.333,5.333,0,0,0-3.722,1.514L146.88,109.9a5.342,5.342,0,0,0-1.054,6.21l10.4,20.8a5.337,5.337,0,0,1-4.769,7.724h-3.762a5.33,5.33,0,0,1-3.5-1.307l-6.19-5.376a10.684,10.684,0,0,0-10.372-2.068l-20.791,6.93a7.973,7.973,0,0,0-1.041,14.695l7.391,3.7a45.173,45.173,0,0,0,20.218,4.776c7.017,0,15.068,18.2,21.345,21.345h44.524a21.357,21.357,0,0,1,15.095,6.25l9.132,9.132a20.347,20.347,0,0,1,5.957,14.388,31.041,31.041,0,0,1-9.152,22Zm57.838-60.933a16.01,16.01,0,0,1-9.439-6.65l-11.993-17.99a15.989,15.989,0,0,1,0-17.756l13.067-19.6a15.99,15.99,0,0,1,6.163-5.436l8.658-4.329a129.23,129.23,0,0,1,13.007,76.622Z" transform="translate(6519 -1344.986)" fill="#fafafa"/>
    <text id="_0" data-name="0" transform="translate(6812 -1313)" fill="#fafafa" font-size="138" font-family="Oswald-SemiBold, Oswald" font-weight="600"><tspan x="0" y="0">0</tspan></text>
  </g>
</svg>
